# xmcd
#
# Track frame offsets:
# 150
# 20244
# 33422
# 53434
# 70480
# 87190
# 104976
# 118913
# 141854
# 164561
# 179387
# 197639
# 209708
# 224912
# 243017
# 262382
# 296362
#
# Disc length: 4393 seconds
#
# Revision: 0
# Processed by: cddbd v1.5.1PL0 Copyright (c) Steve Scherf et al.
# Submitted via: Audion 3.0.2 (http://www.panic.com/audion/)
#
DISCID=1c112711
DTITLE=Eric Clapton - The Best Of Eric Clapton 
DYEAR=1900
DGENRE=
TTITLE0=I Shot the Sheriff
TTITLE1=After Midnight
TTITLE2=Knockin' on Heaven's Door
TTITLE3=Wonderful Tonight
TTITLE4=Layla
TTITLE5=Cocaine
TTITLE6=Lay Down Sally
TTITLE7=Bell Bottem Blues
TTITLE8=Promises
TTITLE9=Let It Rain
TTITLE10=Let It Grow
TTITLE11=12
TTITLE12=13
TTITLE13=14
TTITLE14=15
TTITLE15=16
TTITLE16=17
EXTD=
EXTT0=
EXTT1=
EXTT2=
EXTT3=
EXTT4=
EXTT5=
EXTT6=
EXTT7=
EXTT8=
EXTT9=
EXTT10=
EXTT11=
EXTT12=
EXTT13=
EXTT14=
EXTT15=
EXTT16=
PLAYORDER=
